<?xml version="1.0" encoding="UTF-8"?>
<!DOCTYPE svg PUBLIC "-//W3C//DTD SVG 1.1//EN" "http://www.w3.org/Graphics/SVG/1.1/DTD/svg11.dtd">
<!-- Creator: CorelDRAW 2018 (64 Bit Versão de avaliação) -->
<svg xmlns="http://www.w3.org/2000/svg" xml:space="preserve" width="20.0028mm" height="20mm" version="1.1" style="shape-rendering:geometricPrecision; text-rendering:geometricPrecision; image-rendering:optimizeQuality; fill-rule:evenodd; clip-rule:evenodd"
viewBox="0 0 14.11 14.11"
 xmlns:xlink="http://www.w3.org/1999/xlink">
 <defs>
  <style type="text/css">
   <![CDATA[
    .fil0 {fill:white}
   ]]>
  </style>
 </defs>
 <g id="Camada_x0020_1">
  <metadata id="CorelCorpID_0Corel-Layer"/>
  <path class="fil0" d="M0.6 6.45c0.11,0 0.22,0.03 0.31,0.09l1.89 -1.09 0.73 0.44 2.35 -2.35 -0.44 -0.73 1.1 -1.89c-0.05,-0.09 -0.08,-0.19 -0.08,-0.3 0,-0.33 0.27,-0.6 0.6,-0.6 0.33,0 0.6,0.27 0.6,0.6 0,0.33 -0.27,0.6 -0.6,0.6l-0.01 -0 -0.96 1.71 0.47 0.78 -2.88 2.88 -0.78 -0.47 -1.68 0.93 0 0.01c0,0.33 -0.27,0.6 -0.6,0.6 -0.33,0 -0.6,-0.27 -0.6,-0.6 0,-0.33 0.27,-0.6 0.6,-0.6zm4.16 2.18l-1.07 -1.07 -0.42 0.42 2.88 2.88 0.41 -0.41 0.95 -0.01 0.47 0.78 -0.93 1.68 -0.01 -0c-0.33,0 -0.6,0.27 -0.6,0.6 0,0.33 0.27,0.6 0.6,0.6 0.33,0 0.6,-0.27 0.6,-0.6 0,-0.11 -0.03,-0.22 -0.09,-0.31l1.09 -1.89 -0.44 -0.73 2.35 -2.35 0.73 0.44 1.89 -1.09c0.09,0.05 0.2,0.09 0.31,0.09 0.33,0 0.6,-0.27 0.6,-0.6 0,-0.33 -0.27,-0.6 -0.6,-0.6 -0.33,0 -0.6,0.27 -0.6,0.6l0 0.01 -1.71 0.96 -0.78 -0.47 -1.08 1.07c-0.31,-0.32 -0.68,-0.58 -1.1,-0.75l-0 0 -0 -0c-0.48,0.48 -1.89,0.48 -2.37,0l-0.02 0.01 -0 0 -0.02 0.01 -0 0 -0.02 0.01 -0 0 -0.02 0.01 -0 0 -0.02 0.01 -0 0 -0.02 0.01 -0 0 -0.02 0.01 -0 0 -0.02 0.01 -0 0 -0.02 0.01 -0 0 -0.02 0.01 -0 0 -0.02 0.01 -0 0 -0.02 0.01 -0 0 -0.02 0.01 -0 0 -0.02 0.01 -0 0 -0 0 -0.02 0.01 -0.02 0.01 -0 0 -0.02 0.01 -0 0 -0.02 0.01 -0.02 0.01 -0 0 -0.02 0.01 -0.02 0.01 -0 0 -0.02 0.01 -0.01 0.01 -0 0 -0.01 0.01 -0 0c-0.24,0.14 -0.45,0.32 -0.64,0.52zm2.28 -4.22c-0.84,0 -1.52,0.68 -1.52,1.52 0,0.84 0.68,1.52 1.52,1.52 0.84,0 1.52,-0.68 1.52,-1.52 0,-0.84 -0.68,-1.52 -1.52,-1.52zm3.81 1.76l-2.88 -2.88 -0.42 0.42 2.88 2.88 0.42 -0.42z"/>
 </g>
</svg>
