<?xml version="1.0" encoding="UTF-8"?>
<!DOCTYPE svg PUBLIC "-//W3C//DTD SVG 1.1//EN" "http://www.w3.org/Graphics/SVG/1.1/DTD/svg11.dtd">
<!-- Creator: CorelDRAW 2018 (64 Bit Versão de avaliação) -->
<svg xmlns="http://www.w3.org/2000/svg" xml:space="preserve" width="69.6935mm" height="20mm" version="1.1" style="shape-rendering:geometricPrecision; text-rendering:geometricPrecision; image-rendering:optimizeQuality; fill-rule:evenodd; clip-rule:evenodd"
viewBox="0 0 171.26 49.15"
 xmlns:xlink="http://www.w3.org/1999/xlink">
 <defs>
  <style type="text/css">
   <![CDATA[
    .fil0 {fill:white}
    .fil1 {fill:white;fill-rule:nonzero}
   ]]>
  </style>
 </defs>
 <g id="Camada_x0020_1">
  <metadata id="CorelCorpID_0Corel-Layer"/>
  <path class="fil0" d="M2.1 22.46c0.4,0 0.77,0.11 1.08,0.3l6.57 -3.8 2.56 1.53 8.17 -8.17 -1.53 -2.56 3.82 -6.6c-0.18,-0.31 -0.29,-0.67 -0.29,-1.06 0,-1.16 0.94,-2.1 2.1,-2.1 1.16,0 2.1,0.94 2.1,2.1 0,1.16 -0.94,2.1 -2.1,2.1l-0.04 -0 -3.36 5.96 1.64 2.73 -10.03 10.03 -2.73 -1.64 -5.86 3.23 0 0.04c0,1.16 -0.94,2.1 -2.1,2.1 -1.16,0 -2.1,-0.94 -2.1,-2.1 0,-1.16 0.94,-2.1 2.1,-2.1zm14.5 7.58l-3.71 -3.71 -1.46 1.46 10.03 10.03 1.44 -1.44 3.33 -0.02 1.63 2.73 -3.23 5.86 -0.04 -0c-1.16,0 -2.1,0.94 -2.1,2.1 0,1.16 0.94,2.1 2.1,2.1 1.16,0 2.1,-0.94 2.1,-2.1 0,-0.4 -0.11,-0.77 -0.3,-1.08l3.8 -6.57 -1.53 -2.56 8.17 -8.18 2.56 1.53 6.58 -3.81c0.32,0.19 0.69,0.3 1.08,0.3 1.16,0 2.1,-0.94 2.1,-2.1 0,-1.16 -0.94,-2.1 -2.1,-2.1 -1.16,0 -2.1,0.94 -2.1,2.1l0 0.04 -5.97 3.34 -2.73 -1.64 -3.75 3.74c-1.07,-1.12 -2.37,-2.02 -3.82,-2.61l-0 0 -0 -0c-1.68,1.68 -6.59,1.68 -8.27,0l-0.07 0.03 -0 0 -0.07 0.03 -0 0 -0.07 0.03 -0 0 -0.07 0.03 -0 0 -0.06 0.03 -0 0 -0.06 0.03 -0 0 -0.06 0.03 -0 0 -0.06 0.03 -0 0 -0.06 0.03 -0 0 -0.06 0.03 -0 0 -0.06 0.03 -0.01 0 -0.06 0.03 -0.01 0 -0.06 0.03 -0.01 0 -0.06 0.03 -0.01 0 -0 0 -0.06 0.03 -0.06 0.03 -0.01 0 -0.06 0.03 -0.01 0 -0.06 0.04 -0.05 0.03 -0.01 0.01 -0.06 0.04 -0.05 0.03 -0.01 0.01 -0.06 0.04 -0.05 0.03 -0.01 0.01 -0.05 0.03 -0.01 0.01c-0.82,0.5 -1.57,1.1 -2.23,1.8zm7.94 -14.7c-2.92,0 -5.29,2.37 -5.29,5.29 0,2.92 2.37,5.29 5.29,5.29 2.92,0 5.29,-2.37 5.29,-5.29 0,-2.92 -2.37,-5.29 -5.29,-5.29zm13.27 6.13l-10.03 -10.03 -1.46 1.46 10.03 10.03 1.46 -1.46z"/>
  <g id="_869580624">
   <path class="fil1" d="M66.6 13.93l-0.35 0 0 2.9 0.47 0c0.66,0 1.15,-0.13 1.5,-0.38 0.35,-0.25 0.52,-0.62 0.52,-1.09 0,-0.5 -0.17,-0.86 -0.51,-1.09 -0.34,-0.23 -0.88,-0.35 -1.63,-0.35zm-2.95 8.88l0 -10.87 2.8 0c0.86,0 1.54,0.06 2.05,0.19 0.5,0.13 0.95,0.34 1.34,0.63 0.4,0.29 0.72,0.66 0.94,1.11 0.22,0.44 0.33,0.91 0.33,1.41 0,1.1 -0.39,1.97 -1.17,2.62 -0.78,0.65 -1.84,0.97 -3.18,0.97 -0.14,0 -0.24,0 -0.32,-0 -0.07,-0 -0.14,-0.01 -0.19,-0.01l0 3.98 -2.59 0zm11.07 -5.44c0,0.94 0.28,1.74 0.83,2.37 0.55,0.64 1.23,0.96 2.04,0.96 0.81,0 1.5,-0.32 2.05,-0.95 0.55,-0.64 0.82,-1.43 0.82,-2.38 0,-0.95 -0.27,-1.75 -0.82,-2.39 -0.55,-0.64 -1.23,-0.96 -2.05,-0.96 -0.81,0 -1.49,0.32 -2.04,0.96 -0.55,0.64 -0.83,1.44 -0.83,2.39zm-2.67 0c0,-0.81 0.14,-1.56 0.42,-2.26 0.28,-0.7 0.69,-1.33 1.23,-1.89 0.51,-0.53 1.1,-0.94 1.78,-1.22 0.67,-0.28 1.38,-0.42 2.12,-0.42 0.74,0 1.45,0.14 2.13,0.43 0.68,0.28 1.28,0.7 1.8,1.23 0.53,0.53 0.93,1.15 1.2,1.86 0.27,0.7 0.41,1.46 0.41,2.28 0,0.68 -0.09,1.32 -0.28,1.92 -0.19,0.6 -0.47,1.15 -0.85,1.64 -0.53,0.7 -1.18,1.25 -1.95,1.64 -0.77,0.39 -1.59,0.59 -2.46,0.59 -0.73,0 -1.44,-0.14 -2.11,-0.43 -0.67,-0.28 -1.27,-0.7 -1.79,-1.23 -0.54,-0.55 -0.95,-1.18 -1.23,-1.88 -0.28,-0.7 -0.42,-1.45 -0.42,-2.25zm15.84 -3.45l-0.43 0 0 3.01 0.55 0c0.66,0 1.15,-0.13 1.5,-0.4 0.35,-0.26 0.52,-0.65 0.52,-1.14 0,-0.52 -0.17,-0.89 -0.5,-1.13 -0.34,-0.23 -0.88,-0.35 -1.64,-0.35zm-2.95 8.89l0 -10.87 2.79 0c0.9,0 1.59,0.06 2.08,0.18 0.49,0.12 0.93,0.31 1.31,0.59 0.4,0.29 0.72,0.65 0.94,1.08 0.22,0.43 0.33,0.88 0.33,1.35 0,0.69 -0.17,1.28 -0.52,1.8 -0.35,0.51 -0.85,0.92 -1.5,1.21l3.32 4.67 -2.96 0 -2.9 -4.27 -0.37 0 0 4.27 -2.52 0zm12 0l0 -8.6 -3.46 0 0 -2.27 9.49 0 0 2.27 -3.44 0 0 8.6 -2.6 0zm8.53 -3.46l2.86 0 -1.41 -3.4 -1.45 3.4zm-4.07 3.46l5.55 -11.21 0.16 0 5.42 11.21 -2.72 0 -0.69 -1.58 -4.41 0 -0.7 1.58 -2.61 0zm11.95 0l0 -10.87 2.6 0 0 8.54 4.24 0 0 2.33 -6.83 0zm15.11 -2.33l0.57 0c1.13,0 2.02,-0.27 2.66,-0.82 0.64,-0.55 0.96,-1.31 0.96,-2.28 0,-0.97 -0.32,-1.73 -0.96,-2.29 -0.64,-0.56 -1.53,-0.83 -2.66,-0.83l-0.57 0 0 6.22zm-2.56 2.33l0 -10.87 2.89 0c2.03,0 3.62,0.48 4.77,1.45 1.15,0.97 1.73,2.3 1.73,3.98 0,1.01 -0.23,1.91 -0.68,2.69 -0.45,0.78 -1.12,1.43 -2,1.93 -0.5,0.29 -1.04,0.5 -1.63,0.62 -0.59,0.13 -1.31,0.19 -2.18,0.19l-2.89 0zm13.19 -5.44c0,0.94 0.28,1.74 0.83,2.37 0.55,0.64 1.23,0.96 2.04,0.96 0.81,0 1.5,-0.32 2.05,-0.95 0.55,-0.64 0.82,-1.43 0.82,-2.38 0,-0.95 -0.27,-1.75 -0.82,-2.39 -0.55,-0.64 -1.23,-0.96 -2.05,-0.96 -0.81,0 -1.49,0.32 -2.04,0.96 -0.55,0.64 -0.83,1.44 -0.83,2.39zm-2.67 0c0,-0.81 0.14,-1.56 0.42,-2.26 0.28,-0.7 0.69,-1.33 1.23,-1.89 0.51,-0.53 1.1,-0.94 1.78,-1.22 0.67,-0.28 1.38,-0.42 2.12,-0.42 0.74,0 1.45,0.14 2.13,0.43 0.68,0.28 1.28,0.7 1.8,1.23 0.53,0.53 0.93,1.15 1.2,1.86 0.27,0.7 0.41,1.46 0.41,2.28 0,0.68 -0.09,1.32 -0.28,1.92 -0.19,0.6 -0.47,1.15 -0.85,1.64 -0.53,0.7 -1.18,1.25 -1.95,1.64 -0.77,0.39 -1.59,0.59 -2.46,0.59 -0.73,0 -1.44,-0.14 -2.11,-0.43 -0.67,-0.28 -1.27,-0.7 -1.79,-1.23 -0.54,-0.55 -0.95,-1.18 -1.23,-1.88 -0.28,-0.7 -0.42,-1.45 -0.42,-2.25z"/>
   <path class="fil1" d="M77.2 33.87c-0.73,-0.75 -1.47,-1.31 -2.22,-1.68 -0.75,-0.36 -1.54,-0.55 -2.36,-0.55 -1.43,0 -2.6,0.49 -3.51,1.48 -0.91,0.99 -1.37,2.26 -1.37,3.8 0,1.55 0.45,2.8 1.35,3.76 0.9,0.96 2.07,1.44 3.52,1.44 0.86,0 1.71,-0.18 2.56,-0.54 0.85,-0.36 1.7,-0.9 2.55,-1.61l-0.26 4.49c-0.72,0.49 -1.51,0.86 -2.37,1.12 -0.86,0.26 -1.75,0.39 -2.68,0.39 -1,0 -1.95,-0.16 -2.86,-0.47 -0.91,-0.31 -1.76,-0.77 -2.52,-1.38 -1.09,-0.86 -1.92,-1.9 -2.5,-3.13 -0.58,-1.23 -0.87,-2.58 -0.87,-4.03 0,-1.25 0.22,-2.43 0.64,-3.52 0.43,-1.09 1.05,-2.07 1.87,-2.91 0.82,-0.84 1.78,-1.48 2.86,-1.93 1.08,-0.45 2.22,-0.67 3.42,-0.67 0.95,0 1.86,0.13 2.72,0.4 0.86,0.26 1.69,0.66 2.47,1.2l-0.43 4.32zm3.2 11.56l0 -16.91 4.04 0 0 16.91 -4.04 0zm11.97 -3.63l0.89 0c1.76,0 3.15,-0.43 4.14,-1.28 1,-0.86 1.49,-2.03 1.49,-3.54 0,-1.51 -0.5,-2.69 -1.49,-3.56 -1,-0.86 -2.38,-1.29 -4.14,-1.29l-0.89 0 0 9.67zm-3.99 3.63l0 -16.91 4.49 0c3.16,0 5.63,0.75 7.42,2.26 1.79,1.51 2.68,3.58 2.68,6.19 0,1.57 -0.35,2.97 -1.06,4.18 -0.7,1.22 -1.74,2.22 -3.11,3.01 -0.78,0.45 -1.62,0.77 -2.54,0.97 -0.91,0.2 -2.04,0.3 -3.39,0.3l-4.49 0zm21.09 -5.37l4.44 0 -2.19 -5.3 -2.25 5.3zm-6.33 5.37l8.63 -17.44 0.26 0 8.44 17.44 -4.22 0 -1.07 -2.46 -6.86 0 -1.09 2.46 -4.06 0zm22.57 -3.63l0.89 0c1.76,0 3.15,-0.43 4.14,-1.28 0.99,-0.86 1.49,-2.03 1.49,-3.54 0,-1.51 -0.5,-2.69 -1.49,-3.56 -1,-0.86 -2.38,-1.29 -4.14,-1.29l-0.89 0 0 9.67zm-3.99 3.63l0 -16.91 4.49 0c3.16,0 5.63,0.75 7.42,2.26 1.79,1.51 2.68,3.58 2.68,6.19 0,1.57 -0.35,2.97 -1.06,4.18 -0.7,1.22 -1.74,2.22 -3.11,3.01 -0.78,0.45 -1.62,0.77 -2.54,0.97 -0.91,0.2 -2.04,0.3 -3.39,0.3l-4.49 0zm21.09 -5.37l4.44 0 -2.19 -5.3 -2.25 5.3zm-6.33 5.37l8.63 -17.44 0.25 0 8.44 17.44 -4.22 0 -1.07 -2.46 -6.86 0 -1.09 2.46 -4.06 0zm12.21 -22.1c-0.18,0.91 -0.45,1.58 -0.83,2 -0.37,0.42 -0.87,0.63 -1.49,0.63 -0.12,0 -0.24,-0.01 -0.38,-0.03 -0.14,-0.02 -0.28,-0.05 -0.43,-0.09l-0.98 -0.29c-0.16,-0.04 -0.29,-0.07 -0.41,-0.09 -0.12,-0.02 -0.23,-0.03 -0.34,-0.03 -0.25,0 -0.47,0.06 -0.63,0.2 -0.16,0.13 -0.29,0.33 -0.37,0.59l-1.17 0c0.16,-0.86 0.42,-1.5 0.79,-1.92 0.37,-0.43 0.85,-0.64 1.45,-0.64 0.15,0 0.3,0.02 0.47,0.05 0.17,0.03 0.34,0.07 0.52,0.13l1.02 0.28c0.1,0.02 0.2,0.04 0.29,0.06 0.1,0.01 0.2,0.02 0.31,0.02 0.25,0 0.46,-0.08 0.64,-0.22 0.18,-0.15 0.29,-0.36 0.37,-0.64l1.17 0zm9.48 13.64c0,1.47 0.43,2.7 1.29,3.69 0.86,0.99 1.92,1.49 3.18,1.49 1.27,0 2.33,-0.49 3.18,-1.48 0.86,-0.99 1.28,-2.23 1.28,-3.7 0,-1.48 -0.43,-2.73 -1.28,-3.72 -0.86,-0.99 -1.92,-1.49 -3.18,-1.49 -1.26,0 -2.32,0.5 -3.18,1.49 -0.86,0.99 -1.29,2.23 -1.29,3.72zm-4.16 0c0,-1.25 0.22,-2.42 0.65,-3.52 0.43,-1.09 1.07,-2.07 1.91,-2.93 0.79,-0.82 1.72,-1.46 2.77,-1.9 1.05,-0.44 2.15,-0.66 3.3,-0.66 1.15,0 2.25,0.22 3.31,0.67 1.06,0.44 1.99,1.08 2.81,1.91 0.82,0.83 1.45,1.79 1.87,2.89 0.43,1.09 0.64,2.27 0.64,3.54 0,1.06 -0.15,2.05 -0.44,2.99 -0.3,0.93 -0.74,1.78 -1.32,2.56 -0.82,1.09 -1.84,1.95 -3.04,2.55 -1.2,0.61 -2.48,0.91 -3.82,0.91 -1.14,0 -2.24,-0.22 -3.28,-0.66 -1.05,-0.44 -1.97,-1.08 -2.78,-1.91 -0.84,-0.86 -1.48,-1.84 -1.91,-2.92 -0.43,-1.08 -0.65,-2.25 -0.65,-3.5z"/>
  </g>
 </g>
</svg>
